<svg xmlns="http://www.w3.org/2000/svg" viewBox="-200 -200 6800 2500">
<!-- AXON Finance · 线稿版 · 横版 · white · W2 电路双线定制字标（纯矢量路径，无需字体） -->
<path d="M 1738.1,213.1 C 1642.8,185.0 1525.6,221.7 1413.5,249.1 C 1301.4,276.4 1245.3,272.7 1065.5,377.2 C 885.7,481.8 478.2,770.2 334.5,876.4 C 190.8,982.6 203.0,1014.5 203.0,1014.5 C 203.0,1014.5 358.0,1408.7 358.0,1408.7 C 358.0,1408.7 877.5,1224.0 877.5,1224.0 C 877.5,1224.0 967.9,1768.0 967.9,1768.0 C 967.9,1768.0 1324.9,1864.9 1324.9,1864.9 C 1324.9,1864.9 1510.5,1585.2 1570.3,1455.5 C 1630.1,1325.8 1614.3,1259.5 1683.5,1086.5 C 1752.7,913.5 1985.2,417.5 1985.2,417.5 C 1985.2,417.5 1833.4,241.2 1738.1,213.1 Z" fill="none" stroke="#f7f5f1" stroke-width="120" stroke-linejoin="miter" stroke-miterlimit="4"/>
<path d="M 1705.5,314.4 C 1705.5,314.4 1835.3,451.5 1835.3,451.5 C 1835.3,451.5 1622.5,917.2 1622.5,917.2 C 1622.5,917.2 1486.7,814.0 1486.7,814.0 C 1486.7,814.0 1609.0,524.5 1609.0,524.5 C 1609.0,524.5 1594.7,505.7 1594.7,505.7 C 1594.7,505.7 1400.2,562.6 1316.5,594.9 C 1232.8,627.2 1196.4,639.1 1092.5,699.7 C 988.6,760.3 693.0,958.6 693.0,958.6 C 693.0,958.6 963.3,899.1 1064.2,884.0 C 1165.1,868.9 1233.6,865.4 1298.5,868.0 C 1363.4,870.6 1413.9,882.7 1453.5,899.7 C 1493.1,916.8 1518.9,933.8 1535.9,970.3 C 1552.9,1006.8 1560.3,1065.5 1555.5,1118.5 C 1550.7,1171.5 1554.7,1186.7 1507.1,1288.1 C 1459.5,1389.5 1269.7,1727.1 1269.7,1727.1 C 1269.7,1727.1 1074.0,1665.1 1074.0,1665.1 C 1074.0,1665.1 1004.8,1170.1 1004.8,1170.1 C 1004.8,1170.1 1014.3,1148.2 1040.5,1147.8 C 1066.7,1147.4 1162.2,1167.5 1162.2,1167.5 C 1162.2,1167.5 1231.9,1462.9 1231.9,1462.9 C 1231.9,1462.9 1339.8,1260.1 1367.8,1198.5 C 1395.8,1136.9 1398.8,1121.3 1400.2,1093.5 C 1401.6,1065.7 1376.4,1031.5 1376.4,1031.5 C 1376.4,1031.5 1296.3,1011.6 1234.5,1015.9 C 1172.7,1020.2 1139.0,1017.9 1005.5,1057.1 C 872.0,1096.3 433.8,1251.2 433.8,1251.2 C 433.8,1251.2 348.5,1034.5 348.5,1034.5 C 348.5,1034.5 582.3,831.4 680.5,756.5 C 778.7,681.6 851.2,635.8 937.5,585.2 C 1023.8,534.6 1116.0,488.9 1198.5,452.7 C 1281.0,416.5 1348.0,391.0 1432.5,367.9 C 1517.0,344.9 1705.5,314.4 1705.5,314.4 Z" fill="#f7f5f1"/>
<g transform="translate(2540,650) scale(8)"><g stroke="#f7f5f1" stroke-width="8" fill="none"><path d="M0,100 L43,0 L86,100"/><path d="M20,60 H66 M15,74 H71"/><path d="M126,0 L158,37 M178,63 L212,100 M212,0 L178,37 M158,63 L126,100"/><circle cx="295" cy="50" r="45"/><circle cx="295" cy="50" r="28"/><path d="M378,100 L378,0 M386,10 L456,90 M464,0 L464,100"/></g><path d="M168,42 L176,50 L168,58 L160,50 Z" fill="#f5541c"/></g>
</svg>
